<svg width="25" height="18" viewBox="0 0 25 18" fill="none" xmlns="http://www.w3.org/2000/svg">
<path d="M0 2.81008V5.53846H3.90833L0 2.81008ZM3.23889 18H9.02778V13.959L3.23889 18ZM15.9722 13.9597V18H21.7604L15.9722 13.9597ZM0 12.4615V15.1899L3.90972 12.4615H0ZM21.7618 0H15.9722V4.041L21.7618 0ZM25 15.1906V12.4615H21.0896L25 15.1906ZM25 5.53846V2.81008L21.091 5.53846H25ZM9.02778 0H3.23889L9.02778 4.041V0Z" fill="#00247D"/>
<path d="M17.4583 12.4615L24.2028 17.1699C24.5321 16.8316 24.7689 16.4147 24.8903 15.9591L19.8798 12.4615H17.4583ZM9.02776 12.4615H7.54095L0.797203 17.1692C1.15901 17.5361 1.6229 17.7985 2.14304 17.9204L9.02776 13.1144V12.4615ZM15.9722 5.53844H17.459L24.2028 0.830744C23.8347 0.458473 23.3683 0.197993 22.8576 0.0795898L15.9722 4.88559V5.53844ZM7.54095 5.53844L0.797203 0.830744C0.468004 1.16926 0.231102 1.58608 0.109009 2.04159L5.11943 5.53844H7.54095Z" fill="#CF1B2B"/>
<path d="M25 11.0769H14.5833V18H15.9722V13.9597L21.7604 18H22.2222C22.5912 18.0001 22.9564 17.9267 23.2965 17.7841C23.6366 17.6416 23.9447 17.4328 24.2028 17.1699L17.4583 12.4615H19.8799L24.8903 15.9591C24.9549 15.7258 25 15.4842 25 15.2308V15.1906L21.0896 12.4615H25V11.0769ZM0 11.0769V12.4615H3.90972L0 15.1899V15.2308C0 15.9861 0.304861 16.6694 0.797222 17.1692L7.54097 12.4615H9.02778V13.1144L2.14306 17.9197C2.34722 17.9682 2.55833 18 2.77778 18H3.23889L9.02778 13.959V18H10.4167V11.0769H0ZM25 2.76923C25.0004 2.04368 24.714 1.3472 24.2028 0.830769L17.459 5.53846H15.9722V4.88562L22.8576 0.0796155C22.6496 0.0287498 22.4364 0.00203404 22.2222 2.61954e-07H21.7618L15.9722 4.041V2.61954e-07H14.5833V6.92308H25V5.53846H21.091L25 2.81008V2.76923ZM9.02778 2.61954e-07V4.041L3.23889 2.61954e-07H2.77778C2.40877 -0.000160042 2.04345 0.0732555 1.70332 0.215928C1.36319 0.3586 1.05511 0.567646 0.797222 0.830769L7.54097 5.53846H5.11944L0.109028 2.04162C0.0401251 2.27818 0.00345376 2.52292 0 2.76923L0 2.81008L3.90833 5.53846H0V6.92308H10.4167V2.61954e-07H9.02778Z" fill="#EEEEEE"/>
<path d="M14.5833 6.92308V0H10.4167V6.92308H0V11.0769H10.4167V18H14.5833V11.0769H25V6.92308H14.5833Z" fill="#CF1B2B"/>
</svg>
