<svg width="80" height="80" viewBox="0 0 80 80" fill="none" xmlns="http://www.w3.org/2000/svg">
<rect width="80" height="80" rx="10" fill="#96D1FF"/>
<circle cx="41" cy="40" r="30" fill="#0563AB"/>
<path d="M30.091 41.3636C28.7458 40.4668 26.7402 40.1536 24.6234 40.159C19.8199 40.171 16.5874 44.9852 18.783 49.2575C21.8341 55.1942 27.1865 59.4251 31.3276 61.7683C33.0079 62.7192 34.1819 62.3851 34.1819 60.4545C34.1819 56.3636 41 48.1818 43.7273 46.8181C46.4546 45.4545 61.4546 54.9999 62.8182 46.8181C64.1819 38.6363 62.8182 34.5454 62.8182 31.8181C62.8182 29.7988 57.367 22.9511 54.0325 19.0595C53.5294 18.4723 52.963 17.9412 52.2978 17.5469C48.9495 15.5623 43.7273 14.3668 43.7273 22.2727C43.7273 29.5662 41.8225 34.193 40.4008 36.3123C39.9453 36.9913 39.4304 37.6301 38.9795 38.3121C37.4003 40.7008 34.7025 44.0908 32.8182 44.0908C30.091 44.0908 34.1819 44.0909 30.091 41.3636Z" fill="#96D1FF"/>
</svg>
