<svg width="80" height="80" viewBox="0 0 80 80" fill="none" xmlns="http://www.w3.org/2000/svg">
<rect width="80" height="80" rx="10" fill="#96D1FF"/>
<path d="M23 27C23.0002 10.5 36.5001 10 41.1395 10C48.5001 10 56.5001 14.5 57.0001 26C57.4132 35.5 51.8372 40.6977 49.5116 42.093V63.0233C47.6512 65.3488 43.3721 70 41.1395 70C38.907 70 33.6977 65.3488 31.3721 63.0233V60.2326H29.9767V57.4419H31.3721V54.6512H29.9767V50.4651H31.3721V47.6744H29.9767V43.4884H31.3721V42.093C25.7907 38.7442 23 31.1847 23 27Z" fill="#0563AB"/>
<circle cx="40.1862" cy="25.186" r="4.18605" fill="#96D1FF"/>
</svg>
