<svg width="19" height="18" viewBox="0 0 19 18" fill="none" xmlns="http://www.w3.org/2000/svg">
<path fill-rule="evenodd" clip-rule="evenodd" d="M9.68701 1.5C13.0988 1.5 15.8745 4.29675 15.8745 7.73475C15.8745 11.961 11.0325 16.125 9.68701 16.125C8.34151 16.125 3.49951 11.961 3.49951 7.73475C3.49951 4.29675 6.27526 1.5 9.68701 1.5ZM9.68701 2.625C6.89551 2.625 4.62451 4.91775 4.62451 7.73475C4.62451 11.319 8.84251 14.811 9.68701 14.997C10.5315 14.8103 14.7495 11.3182 14.7495 7.73475C14.7495 4.91775 12.4785 2.625 9.68701 2.625ZM9.68776 5.25C11.0318 5.25 12.1253 6.3435 12.1253 7.68825C12.1253 9.03225 11.0318 10.125 9.68776 10.125C8.34376 10.125 7.25026 9.03225 7.25026 7.68825C7.25026 6.3435 8.34376 5.25 9.68776 5.25ZM9.68776 6.375C8.96401 6.375 8.37526 6.96375 8.37526 7.68825C8.37526 8.412 8.96401 9 9.68776 9C10.4115 9 11.0003 8.412 11.0003 7.68825C11.0003 6.96375 10.4115 6.375 9.68776 6.375Z" fill="#808D9C"/>
</svg>
