<svg width="25" height="18" viewBox="0 0 25 18" fill="none" xmlns="http://www.w3.org/2000/svg">
<path d="M25 15.2307C25 15.9651 24.7073 16.6695 24.1864 17.1888C23.6655 17.7081 22.9589 17.9999 22.2222 17.9999H2.77778C2.04107 17.9999 1.33453 17.7081 0.813592 17.1888C0.292658 16.6695 0 15.9651 0 15.2307V12.4614H25V15.2307Z" fill="#CE2028"/>
<path d="M0 5.53857H25V12.4617H0V5.53857Z" fill="#22408C"/>
<path d="M22.2222 0H2.77778C2.04107 0 1.33453 0.291757 0.813592 0.811089C0.292658 1.33042 0 2.03479 0 2.76923L0 5.53846H25V2.76923C25 2.03479 24.7073 1.33042 24.1864 0.811089C23.6655 0.291757 22.9589 0 22.2222 0V0Z" fill="#EEEEEE"/>
</svg>
