<svg width="25" height="18" viewBox="0 0 25 18" fill="none" xmlns="http://www.w3.org/2000/svg">
<path d="M0 2.76923V5.53846H25V2.76923C25 2.03479 24.7073 1.33042 24.1864 0.811089C23.6655 0.291757 22.9589 0 22.2222 0H2.77778C2.04107 0 1.33453 0.291757 0.813592 0.811089C0.292658 1.33042 0 2.03479 0 2.76923H0Z" fill="#0099B5"/>
<path d="M25 15.2307V12.4614H0V15.2307C0 15.9651 0.292658 16.6695 0.813592 17.1888C1.33453 17.7081 2.04107 17.9999 2.77778 17.9999H22.2222C22.9589 17.9999 23.6655 17.7081 24.1864 17.1888C24.7073 16.6695 25 15.9651 25 15.2307Z" fill="#1EB53A"/>
<path d="M0 5.53857H25V6.57704H0V5.53857ZM0 11.4232H25V12.4617H0V11.4232Z" fill="#CE1126"/>
<path d="M0 8.99998V11.4231H25V6.5769H0V8.99998Z" fill="#EEEEEE"/>
<path d="M2.9167 2.87997C2.91676 2.36956 3.09812 1.87566 3.42863 1.48585C3.75913 1.09604 4.21743 0.835501 4.72225 0.750432C4.41148 0.697843 4.09294 0.713487 3.78886 0.796275C3.48478 0.879062 3.20248 1.027 2.96166 1.22976C2.72084 1.43252 2.52729 1.68523 2.39453 1.97024C2.26177 2.25526 2.19299 2.56572 2.19299 2.87997C2.19299 3.19422 2.26177 3.50468 2.39453 3.7897C2.52729 4.07471 2.72084 4.32742 2.96166 4.53018C3.20248 4.73294 3.48478 4.88088 3.78886 4.96367C4.09294 5.04645 4.41148 5.0621 4.72225 5.00951C4.21743 4.92444 3.75913 4.6639 3.42863 4.27409C3.09812 3.88428 2.91676 3.39038 2.9167 2.87997V2.87997ZM6.16878 4.47436L6.07156 4.17597L5.97434 4.47436H5.65906L5.91392 4.6592L5.8167 4.95759L6.07156 4.77274L6.32573 4.95759L6.2285 4.6592L6.48336 4.47436H6.16878ZM8.04517 4.47436L7.94795 4.17597L7.85073 4.47436H7.53614L7.791 4.6592L7.69378 4.95759L7.94795 4.77274L8.20281 4.95759L8.10559 4.6592L8.36045 4.47436H8.04517ZM7.94795 2.44797L7.85073 2.74636H7.53614L7.791 2.9312L7.69378 3.22959L7.94795 3.04474L8.20281 3.22959L8.10559 2.9312L8.36045 2.74636H8.04517L7.94795 2.44797ZM9.92225 4.47436L9.82503 4.17597L9.72781 4.47436H9.41323L9.66739 4.6592L9.57017 4.95759L9.82503 4.77274L10.0799 4.95759L9.98267 4.6592L10.2368 4.47436H9.92225ZM9.82503 2.44797L9.72781 2.74636H9.41323L9.66739 2.9312L9.57017 3.22959L9.82503 3.04474L10.0799 3.22959L9.98267 2.9312L10.2368 2.74636H9.92225L9.82503 2.44797ZM9.82503 0.719971L9.72781 1.01836H9.41323L9.66739 1.2032L9.57017 1.50159L9.82503 1.31674L10.0799 1.50159L9.98267 1.2032L10.2368 1.01836H9.92225L9.82503 0.719971ZM11.7993 4.47436L11.7021 4.17597L11.6049 4.47436H11.2896L11.5445 4.6592L11.4473 4.95759L11.7021 4.77274L11.9563 4.95759L11.8591 4.6592L12.1139 4.47436H11.7993ZM11.7021 2.44797L11.6049 2.74636H11.2896L11.5445 2.9312L11.4473 3.22959L11.7021 3.04474L11.9563 3.22959L11.8591 2.9312L12.1139 2.74636H11.7993L11.7021 2.44797ZM11.7021 0.719971L11.6049 1.01836H11.2896L11.5445 1.2032L11.4473 1.50159L11.7021 1.31674L11.9563 1.50159L11.8591 1.2032L12.1139 1.01836H11.7993L11.7021 0.719971ZM13.6757 4.47436L13.5785 4.17597L13.4813 4.47436H13.1667L13.4216 4.6592L13.3243 4.95759L13.5785 4.77274L13.8334 4.95759L13.7361 4.6592L13.991 4.47436H13.6757ZM13.5785 2.44797L13.4813 2.74636H13.1667L13.4216 2.9312L13.3243 3.22959L13.5785 3.04474L13.8334 3.22959L13.7361 2.9312L13.991 2.74636H13.6757L13.5785 2.44797ZM13.5785 0.719971L13.4813 1.01836H13.1667L13.4216 1.2032L13.3243 1.50159L13.5785 1.31674L13.8334 1.50159L13.7361 1.2032L13.991 1.01836H13.6757L13.5785 0.719971Z" fill="white"/>
</svg>
